<svg xmlns="http://www.w3.org/2000/svg" xmlns:xlink="http://www.w3.org/1999/xlink" viewBox="6750 0 1280 941"><defs><style>.a{clip-path:url(#b);}.b,.c,.f,.h,.m,.n{fill:#fff;}.c{stroke:#a58025;}.d,.j,.k,.l{fill:#a58025;}.e,.p{fill:none;}.e,.f{fill-rule:evenodd;}.g,.i{fill:#95989a;}.g{font-size:19px;font-family:HelveticaNeue-Thin, Helvetica Neue;font-weight:200;}.h{stroke:#ededed;}.i,.j,.m,.n{font-size:20px;}.i,.j,.k,.l,.m{font-family:HelveticaNeue, Helvetica Neue;}.k{font-size:14px;}.l{font-size:32px;}.n{font-family:HelveticaNeue-Medium, Helvetica Neue;font-weight:500;}.o{stroke:none;}</style><clipPath id="b"><rect x="6750" width="1280" height="941"/></clipPath></defs><g id="a" class="a"><rect class="b" x="6750" width="1280" height="941"/><g transform="translate(6750)"><rect class="b" width="1280" height="212"/><g transform="translate(45 8)"><g class="c" transform="translate(948 32)"><rect class="o" width="187.5" height="30"/><rect class="p" x="0.5" y="0.5" width="186.5" height="29"/></g><rect class="d" width="30" height="30" transform="translate(1105.5 32)"/><g transform="translate(1111.5 38)"><path class="e" d="M18-6H0V-24H18Z" transform="translate(0 24)"/><path class="f" d="M12.382-12.237h-.6l-.207-.206a4.854,4.854,0,0,0,1.177-3.171,4.878,4.878,0,0,0-4.878-4.878A4.878,4.878,0,0,0,3-15.613a4.878,4.878,0,0,0,4.878,4.878,4.856,4.856,0,0,0,3.171-1.175l.207.206v.594l3.751,3.745,1.119-1.119-3.743-3.752Zm-4.5,0A3.376,3.376,0,0,1,4.5-15.613,3.377,3.377,0,0,1,7.878-18.99a3.377,3.377,0,0,1,3.377,3.377,3.377,3.377,0,0,1-3.377,3.377Z" transform="translate(-0.75 22.741)"/></g></g><g transform="translate(100 39.962)"><g transform="translate(118.812 0.335)"><path d="M82.97,552.6A2.979,2.979,0,0,0,80,555.57v23.763a2.979,2.979,0,0,0,2.97,2.97h23.762a2.979,2.979,0,0,0,2.97-2.97V555.57a2.979,2.979,0,0,0-2.97-2.97Zm19.6,2.97a4.3,4.3,0,0,1,4.01,3.861v3.713H99.455l.743.742h6.386v11.287a4.335,4.335,0,0,1-4.158,4.01H86.832a4.438,4.438,0,0,1-4.01-4.01V563.887h6.386l.743-.742H82.97v-3.713a4.314,4.314,0,0,1,1.634-2.97V562.4h4.6V555.57Zm-1.634,1.634a.954.954,0,0,0-.743.743v3.119a.954.954,0,0,0,.743.743h2.97a.954.954,0,0,0,.743-.743v-3.119a.954.954,0,0,0-.743-.743Zm-6.089,4.158a6.089,6.089,0,1,0,6.089,6.089A6.116,6.116,0,0,0,94.852,561.362Zm0,.594A5.347,5.347,0,1,1,89.5,567.3,5.324,5.324,0,0,1,94.852,561.957Zm0,1.337a4.01,4.01,0,1,0,4.01,4.01A3.993,3.993,0,0,0,94.852,563.293Z" transform="translate(-80 -552.6)"/></g><g transform="translate(59.406 0.186)"><path d="M42.97,552.5A2.979,2.979,0,0,0,40,555.47v23.762a2.979,2.979,0,0,0,2.97,2.97H66.733a2.979,2.979,0,0,0,2.97-2.97V555.47a2.979,2.979,0,0,0-2.97-2.97Zm16.485,4.9h0a5.148,5.148,0,0,1,3.861,1.634,12.275,12.275,0,0,0,3.267-1.188,5.318,5.318,0,0,1-2.228,2.822,15.672,15.672,0,0,0,2.822-.743,10.811,10.811,0,0,1-2.525,2.673v.594A14.13,14.13,0,0,1,50.4,577.451a15.129,15.129,0,0,1-7.723-2.228h1.188a10.168,10.168,0,0,0,6.238-2.079,5.084,5.084,0,0,1-4.752-3.564c.3,0,.594.149.891.149a4.111,4.111,0,0,0,1.337-.149,5.088,5.088,0,0,1-4.01-4.9h0a4.19,4.19,0,0,0,2.228.594,4.937,4.937,0,0,1-2.228-4.158,5.007,5.007,0,0,1,.743-2.525,14.444,14.444,0,0,0,10.4,5.2,2.9,2.9,0,0,1-.149-1.188A5.015,5.015,0,0,1,59.455,557.4Z" transform="translate(-40 -552.5)"/></g><g transform="translate(0 0.038)"><path d="M2.97,552.4A2.979,2.979,0,0,0,0,555.37v23.762a2.979,2.979,0,0,0,2.97,2.97h10.4V568.737H10.693v-4.753h2.673v-2.97c0-2.228,1.04-5.644,5.644-5.644h4.158v4.6H20.2a1.2,1.2,0,0,0-1.188,1.337v2.822h4.158l-.446,4.752H19.01v13.367h7.723a2.979,2.979,0,0,0,2.97-2.97V555.519a2.979,2.979,0,0,0-2.97-2.97H2.97Z" transform="translate(0 -552.4)"/></g></g><g transform="translate(-29 20)"><g transform="translate(519 80)"><path d="M39.9,147.746v-1.367a7.161,7.161,0,0,0,4.92-1.913,6.71,6.71,0,0,0,2.05-4.92V115.9h1.64v23.645a8.037,8.037,0,0,1-2.46,6.014A9.931,9.931,0,0,1,39.9,147.746Zm7.79-37.312c-.957,0-1.367-.41-1.367-1.367s.41-1.367,1.367-1.367,1.367.41,1.367,1.367S48.647,110.433,47.69,110.433Z" transform="translate(-39.9 -98.133)"/><path d="M53.417,132.981a11.153,11.153,0,0,1-3.417-8.2,10.646,10.646,0,0,1,3.417-8.064,11.88,11.88,0,0,1,16.674,0,11.072,11.072,0,0,1,3.417,8.064,11.574,11.574,0,0,1-3.28,8.2,10.775,10.775,0,0,1-8.064,3.554h-.41A11.368,11.368,0,0,1,53.417,132.981ZM72,124.917A9.915,9.915,0,0,0,69,117.674a9.751,9.751,0,0,0-14.214.137,10.484,10.484,0,0,0-3.007,7.244,9.406,9.406,0,0,0,3.007,7.107,10.24,10.24,0,0,0,7.244,3.007,9.406,9.406,0,0,0,7.107-3.007A10.988,10.988,0,0,0,72,124.917Z" transform="translate(-36.196 -96.079)"/><path d="M89.8,113.6h1.367L80.234,136.425,69.3,113.6h1.777l9.294,19.408Z" transform="translate(-29.118 -95.969)"/><path d="M110.871,113.747v22.141h-1.64v-5.467a10.553,10.553,0,0,1-4.1,4.374A11.626,11.626,0,1,1,99.254,113.2a12.074,12.074,0,0,1,6.014,1.64,8.718,8.718,0,0,1,3.964,4.374v-5.6h1.64ZM89,124.954a9.406,9.406,0,0,0,3.007,7.107,10.24,10.24,0,0,0,7.244,3.007,9.406,9.406,0,0,0,7.107-3.007,10.24,10.24,0,0,0,3.007-7.244,9.915,9.915,0,0,0-3.007-7.244,9.751,9.751,0,0,0-14.214.137A10.631,10.631,0,0,0,89,124.954Z" transform="translate(-22.443 -96.116)"/><path d="M110.44,135.988H108.8V113.847h1.64v4.51c1.64-3.28,4.51-5.057,8.61-5.057a9.8,9.8,0,0,1,9.841,9.841v12.847h-1.64V123.141a8.38,8.38,0,0,0-2.323-5.877,7.867,7.867,0,0,0-5.74-2.46,8.718,8.718,0,0,0-6.014,2.46,7.8,7.8,0,0,0-2.6,5.877v12.847Z" transform="translate(-14.631 -96.079)"/><path d="M129.37,106.3v-5.6h1.777v5.6a6.511,6.511,0,0,1-1.23,3.964,6.685,6.685,0,0,1-3.417,2.323v-1.777A4.5,4.5,0,0,0,129.37,106.3Z" transform="translate(-8.14 -100.7)"/><path d="M140.887,114.6a3.711,3.711,0,0,0-2.323.82,2.459,2.459,0,0,0-.957,2.05A3.369,3.369,0,0,0,138.7,119.8a12.78,12.78,0,0,0,2.6,1.913c1.093.547,2.05,1.23,3.144,1.913a11.749,11.749,0,0,1,2.733,2.46,6.092,6.092,0,0,1,1.093,3.554,6.353,6.353,0,0,1-2.187,4.92,7.662,7.662,0,0,1-5.33,2.05,8.137,8.137,0,0,1-3.69-.82,5.79,5.79,0,0,1-2.46-2.323v-2.323a6.264,6.264,0,0,0,6.014,4.1,6.447,6.447,0,0,0,4.374-1.64,4.52,4.52,0,0,0,1.777-3.554,5.262,5.262,0,0,0-1.093-3.28,9.136,9.136,0,0,0-2.733-2.323c-1.093-.683-2.05-1.23-3.144-1.913a10.464,10.464,0,0,1-2.6-2.187,4.776,4.776,0,0,1-1.093-3.007,3.689,3.689,0,0,1,1.367-3.007,5.353,5.353,0,0,1,3.554-1.23,4.845,4.845,0,0,1,3.827,1.777v2.05A4.589,4.589,0,0,0,140.887,114.6Z" transform="translate(-5.169 -96.152)"/><path d="M168.774,137.168v1.367a8.711,8.711,0,0,1-6.014-2.323,7.83,7.83,0,0,1-2.46-6.014V107.1h1.64v9.02h6.834v1.367H161.94V130.2a6.3,6.3,0,0,0,2.05,4.92A6.2,6.2,0,0,0,168.774,137.168Z" transform="translate(4.256 -98.353)"/><path d="M170.94,139.8H169.3V102.9h1.64v19c1.64-3.28,4.51-4.784,8.474-4.784a9.8,9.8,0,0,1,9.841,9.841V139.8h-1.64V126.955a8.4,8.4,0,0,0-8.337-8.337,8.48,8.48,0,0,0-6.014,2.46,8.315,8.315,0,0,0-2.6,5.877V139.8Z" transform="translate(7.556 -99.893)"/><path d="M199.227,136.535h-.41a11.291,11.291,0,0,1-8.2-3.554,11.154,11.154,0,0,1-3.417-8.2,10.647,10.647,0,0,1,3.417-8.064,11.546,11.546,0,0,1,8.474-3.417,11.332,11.332,0,0,1,8.747,4.1l-15.444,15.171c2.187,1.64,4.237,2.6,6.15,2.6a10.334,10.334,0,0,0,5.33-1.367,11.911,11.911,0,0,0,3.827-3.554v2.46A10.954,10.954,0,0,1,199.227,136.535Zm-.547-21.868a10.281,10.281,0,0,0-9.977,9.977,9.715,9.715,0,0,0,2.6,6.834l14.351-14.214A10.285,10.285,0,0,0,198.681,114.667Z" transform="translate(14.121 -96.079)"/><path d="M223.914,114.667a8.766,8.766,0,0,1,5.057-1.367,7.44,7.44,0,0,1,5.33,2.187,7.925,7.925,0,0,1,2.323,5.877v14.624h-1.64V121.364a6.6,6.6,0,0,0-1.913-4.784,6.2,6.2,0,0,0-4.51-1.913,6.749,6.749,0,0,0-4.647,1.913,6.334,6.334,0,0,0-2.05,4.647v14.761h-1.64V121.227a6.75,6.75,0,0,0-1.913-4.647,6.2,6.2,0,0,0-4.51-1.913,6.749,6.749,0,0,0-4.647,1.913,6.193,6.193,0,0,0-1.913,4.647v14.761H205.6V113.847h1.64v3.144a10.716,10.716,0,0,1,2.87-2.6,8.349,8.349,0,0,1,4.1-1.093,6.521,6.521,0,0,1,3.964,1.5,9.15,9.15,0,0,1,2.87,3.827A7.18,7.18,0,0,1,223.914,114.667Z" transform="translate(20.869 -96.079)"/><path d="M243.927,136.535h-.41a11.291,11.291,0,0,1-8.2-3.554,11.154,11.154,0,0,1-3.417-8.2,10.647,10.647,0,0,1,3.417-8.064,11.546,11.546,0,0,1,8.474-3.417,11.332,11.332,0,0,1,8.747,4.1l-15.444,15.308c2.187,1.64,4.237,2.6,6.15,2.6a10.334,10.334,0,0,0,5.33-1.367,11.911,11.911,0,0,0,3.827-3.554v2.46A11.289,11.289,0,0,1,243.927,136.535Zm-.547-21.868a10.281,10.281,0,0,0-9.977,9.977,9.715,9.715,0,0,0,2.6,6.834l14.351-14.214A10.285,10.285,0,0,0,243.381,114.667Z" transform="translate(30.515 -96.079)"/><path d="M255.687,114.6a3.711,3.711,0,0,0-2.323.82,2.459,2.459,0,0,0-.957,2.05A3.369,3.369,0,0,0,253.5,119.8a12.779,12.779,0,0,0,2.6,1.913c1.093.547,2.05,1.23,3.143,1.913a11.75,11.75,0,0,1,2.734,2.46,6.092,6.092,0,0,1,1.093,3.554,6.353,6.353,0,0,1-2.187,4.92,7.662,7.662,0,0,1-5.33,2.05,8.137,8.137,0,0,1-3.69-.82,5.79,5.79,0,0,1-2.46-2.323v-2.323a6.264,6.264,0,0,0,6.014,4.1,6.447,6.447,0,0,0,4.374-1.64,4.52,4.52,0,0,0,1.777-3.554,5.262,5.262,0,0,0-1.093-3.28,11.65,11.65,0,0,0-2.734-2.323c-1.093-.683-2.05-1.23-3.144-1.913a8.2,8.2,0,0,1-2.6-2.187,4.776,4.776,0,0,1-1.093-3.007,3.689,3.689,0,0,1,1.367-3.007,5.353,5.353,0,0,1,3.554-1.23,5.042,5.042,0,0,1,3.827,1.777v2.05A4.941,4.941,0,0,0,255.687,114.6Z" transform="translate(36.933 -96.152)"/></g><text class="g" transform="translate(556.21 147.613)"><tspan x="0" y="0">Pick up right theme for you.</tspan></text></g></g><g transform="translate(6750)"><g class="h" transform="translate(-11 212)"><rect class="o" width="1300" height="50"/><rect class="p" x="0.5" y="0.5" width="1299" height="49"/></g><g transform="translate(0 -179)"><text class="i" transform="translate(374 424)"><tspan x="0" y="0">Home</tspan></text><text class="i" transform="translate(542 424)"><tspan x="0" y="0">Blog</tspan></text><text class="i" transform="translate(458 424)"><tspan x="0" y="0">About</tspan></text><text class="i" transform="translate(613 424)"><tspan x="0" y="0">Author</tspan></text><text class="i" transform="translate(703 424)"><tspan x="0" y="0">Categories</tspan></text><text class="j" transform="translate(830 424)"><tspan x="0" y="0">Contact</tspan></text></g></g><g transform="translate(7330 -36)"><g class="c" transform="translate(100 358)"><rect class="o" width="500" height="50"/><rect class="p" x="0.5" y="0.5" width="499" height="49"/></g><text class="k" transform="translate(110 388)"><tspan x="0" y="0">Name</tspan></text><g transform="translate(0 70)"><g class="c" transform="translate(100 358)"><rect class="o" width="500" height="50"/><rect class="p" x="0.5" y="0.5" width="499" height="49"/></g><text class="k" transform="translate(110 388)"><tspan x="0" y="0">E-mail</tspan></text></g><g transform="translate(0 140)"><g class="c" transform="translate(100 358)"><rect class="o" width="500" height="150"/><rect class="p" x="0.5" y="0.5" width="499" height="149"/></g><text class="k" transform="translate(110 388)"><tspan x="0" y="0">Message</tspan></text></g><g class="c" transform="translate(100 668)"><rect class="o" width="150" height="50"/><rect class="p" x="0.5" y="0.5" width="149" height="49"/></g><text class="j" transform="translate(152 701)"><tspan x="0" y="0">Send</tspan></text></g><text class="l" transform="translate(6850 334)"><tspan x="0" y="0">Contact me</tspan></text><text class="i" transform="translate(6850 359)"><tspan x="0" y="19">Lorem ipsum dolor sit amet, consectetur adipiscing elit. </tspan><tspan x="0" y="43">Sed eros est, ullamcorper ac sem eget, ultricies auctor </tspan><tspan x="0" y="67">mi.</tspan><tspan x="0" y="91"></tspan><tspan x="0" y="115">E-mail: jovan.saviic@gmail.com</tspan><tspan x="0" y="139">Twitter: @johnjovan1</tspan></text><g transform="translate(6750 -1092)"><rect class="d" width="1280" height="80" transform="translate(0 1874)"/><rect class="d" width="1280" height="80" transform="translate(0 1953)"/><g transform="translate(0 1498)"><text class="m" transform="translate(374 424)"><tspan x="0" y="0">Home</tspan></text><text class="m" transform="translate(542 424)"><tspan x="0" y="0">Blog</tspan></text><text class="m" transform="translate(458 424)"><tspan x="0" y="0">About</tspan></text><text class="m" transform="translate(613 424)"><tspan x="0" y="0">Author</tspan></text><text class="m" transform="translate(703 424)"><tspan x="0" y="0">Categories</tspan></text><text class="m" transform="translate(830 424)"><tspan x="0" y="0">Contact</tspan></text></g><text class="n" transform="translate(403 2001)"><tspan x="0" y="0">© 2017 JOVAN’S THEMES ALL RIGHTS RESERVED</tspan></text></g></g></svg>