<svg xmlns="http://www.w3.org/2000/svg" viewBox="4537.606 690 55.223 15">
  <path id="if_logo-github_298818" d="M10.684,6.42H6.022a.218.218,0,0,0-.217.218V8.917a.217.217,0,0,0,.217.218H7.841v2.833A5.616,5.616,0,0,1,6.3,12.1c-1.332,0-3.192-.488-3.192-4.577S5.049,2.9,6.868,2.9a7.365,7.365,0,0,1,2.684.411.217.217,0,0,0,.259-.215l.521-2.2a.206.206,0,0,0-.082-.17C10.074.6,9.005,0,6.3,0,3.192,0,0,1.324,0,7.689S3.654,15,6.734,15a7.6,7.6,0,0,0,4.1-1.089.186.186,0,0,0,.07-.164V6.639A.22.22,0,0,0,10.684,6.42ZM34.26.544H31.637a.218.218,0,0,0-.218.218V5.834H27.329V.762a.218.218,0,0,0-.216-.218H24.487a.216.216,0,0,0-.214.218V14.5a.217.217,0,0,0,.214.219h2.626a.217.217,0,0,0,.216-.219V8.622h4.091L31.41,14.5a.216.216,0,0,0,.214.218h2.627a.216.216,0,0,0,.215-.218L34.475.762A.215.215,0,0,0,34.26.544ZM13.82.855a1.709,1.709,0,1,0,1.692,1.709A1.7,1.7,0,0,0,13.82.855ZM15.326,5.26a.218.218,0,0,0-.215-.219H12.493a.248.248,0,0,0-.227.245v9.082c0,.265.166.346.381.346H15c.257,0,.325-.126.325-.352,0-.487,0-2.393,0-2.763C15.326,11.248,15.326,5.26,15.326,5.26Zm29.094-.2h-2.6a.217.217,0,0,0-.214.219v6.733A2.935,2.935,0,0,1,40,12.5c-.938,0-1.189-.426-1.189-1.348V5.28a.218.218,0,0,0-.215-.219H35.953a.217.217,0,0,0-.216.219V11.6c0,2.731,1.523,3.4,3.614,3.4a6.113,6.113,0,0,0,3.1-.949,4.789,4.789,0,0,0,.1.558.222.222,0,0,0,.19.119h1.674a.218.218,0,0,0,.216-.219l.007-9.226A.226.226,0,0,0,44.42,5.061Zm7.132-.309a4.9,4.9,0,0,0-2.486.66V.762a.218.218,0,0,0-.215-.218H46.217A.217.217,0,0,0,46,.762L45.994,14.5a.217.217,0,0,0,.217.218h1.834a.218.218,0,0,0,.19-.115,4.232,4.232,0,0,0,.111-.634,4.7,4.7,0,0,0,3.113,1.02c2.393,0,3.765-1.214,3.765-5.449S53.031,4.752,51.552,4.752Zm-1.027,7.739a3.113,3.113,0,0,1-1.514-.438V7.7a3.462,3.462,0,0,1,1.347-.437c.938-.083,1.845.2,1.845,2.438C52.2,12.063,51.789,12.529,50.524,12.491Zm-27.616-.049c-.115,0-.41.046-.712.046-.965,0-1.295-.45-1.295-1.031V7.594h1.97a.216.216,0,0,0,.216-.219V5.258a.215.215,0,0,0-.216-.219H20.9l0-2.6c0-.1-.052-.147-.166-.147H18.051c-.1,0-.161.046-.161.146V5.125s-1.345.325-1.436.352a.217.217,0,0,0-.156.209v1.69a.219.219,0,0,0,.216.219H17.89v4.064c0,3.018,2.118,3.314,3.546,3.314A6.087,6.087,0,0,0,23,14.714a.2.2,0,0,0,.124-.2V12.661A.219.219,0,0,0,22.908,12.442Z" transform="translate(4537.606 690)"/>
</svg>
