<svg xmlns="http://www.w3.org/2000/svg" xmlns:xlink="http://www.w3.org/1999/xlink" viewBox="4468.577 690 15 15">
  <defs>
    <style>
      .cls-1 {
        fill: url(#linear-gradient);
      }
    </style>
    <linearGradient id="linear-gradient" x1="-2.499" y1="2.036" x2="1" y2="5.699" gradientUnits="objectBoundingBox">
      <stop offset="0" stop-color="red"/>
      <stop offset="0.454" stop-color="#ebcc1f"/>
      <stop offset="1" stop-color="#cc1c82"/>
    </linearGradient>
  </defs>
  <g id="_799082544" transform="translate(4468.577 690)">
    <path id="Path_2" data-name="Path 2" class="cls-1" d="M2044.617,2041.783a2.872,2.872,0,0,1-2.871,2.871h-6.491a2.876,2.876,0,0,1-2.876-2.871v-6.491a2.877,2.877,0,0,1,2.876-2.875h6.491a2.873,2.873,0,0,1,2.871,2.875ZM2041.67,2031h-6.34a4.33,4.33,0,0,0-4.33,4.33v6.34a4.329,4.329,0,0,0,4.33,4.33h6.34a4.329,4.329,0,0,0,4.33-4.33v-6.34A4.329,4.329,0,0,0,2041.67,2031Z" transform="translate(-2031 -2031)"/>
    <path id="Path_3" data-name="Path 3" class="cls-1" d="M2892.893,2904.416a2.522,2.522,0,1,1,2.522-2.522A2.522,2.522,0,0,1,2892.893,2904.416Zm0-6.415a3.893,3.893,0,1,0,3.893,3.893A3.89,3.89,0,0,0,2892.893,2898Z" transform="translate(-2885.394 -2894.355)"/>
    <path id="Path_4" data-name="Path 4" class="cls-1" d="M4556.908,2647a.906.906,0,1,0,.9.908A.909.909,0,0,0,4556.908,2647Z" transform="translate(-4545.386 -2644.41)"/>
  </g>
</svg>
