<svg xmlns="http://www.w3.org/2000/svg" xmlns:xlink="http://www.w3.org/1999/xlink" viewBox="8100 0 1280 800"><defs><style>.a{clip-path:url(#b);}.b,.i,.k{fill:#fff;}.c,.h{fill:none;}.d,.l{fill:#88c33f;}.e{fill:#111;}.f{fill:#a0a4a5;}.f,.g,.j,.k{font-size:20px;}.f,.g{font-family:Helvetica;}.g{fill:#575b5c;}.h,.i{stroke:#95989a;}.j{fill:#95989a;}.j,.k{font-family:HelveticaNeue, Helvetica Neue;}.l{font-size:32px;font-family:Montserrat-Black, Montserrat;font-weight:800;}.m{stroke:none;}</style><clipPath id="b"><rect x="8100" width="1280" height="800"/></clipPath></defs><g id="a" class="a"><rect class="b" x="8100" width="1280" height="800"/><g transform="translate(8100)"><rect class="b" width="1280" height="80"/><g transform="translate(239 31)"><g transform="translate(-13.665)"><path class="c" d="M294.566,21.533V17L284.2,21.533Z" transform="translate(-264.858 -11.862)"/><path class="d" d="M248.73,0l-8.492,4.564V4.02a5.468,5.468,0,0,0-.091-.7,5.2,5.2,0,0,0-.212-.635,5.165,5.165,0,0,0-.393-.7c-.121-.151-.363-.453-.514-.6-.151-.121-.453-.393-.635-.514s-.544-.363-.725-.453a6.6,6.6,0,0,0-.7-.272,2.57,2.57,0,0,0-.665-.121,6.148,6.148,0,0,0-.665-.03H225.7a6.438,6.438,0,0,0-.756.091c-.181.03-.574.091-.786.151-.181.06-.544.151-.7.212-.242.091-.7.272-.907.363a6.651,6.651,0,0,0-.786.453,3.973,3.973,0,0,0-.6.635,4.86,4.86,0,0,0-.514.846,4.345,4.345,0,0,0-.272.725,7.022,7.022,0,0,0-.151,1V6.649l5.017-.03s.03-1.179.03-1.6a.74.74,0,0,1,.121-.363.815.815,0,0,1,.212-.242,2.615,2.615,0,0,1,.3-.212,2.1,2.1,0,0,1,.393-.151,1.768,1.768,0,0,1,.393-.06h7.465a.722.722,0,0,1,.423.151,1.4,1.4,0,0,1,.212.212.858.858,0,0,1,.181.272,1.072,1.072,0,0,1,.091.332v1a1.658,1.658,0,0,1-.151.514,1.006,1.006,0,0,1-.181.3.858.858,0,0,1-.272.181,1.252,1.252,0,0,1-.3.03s-7.223.756-10.517,1.088a4.221,4.221,0,0,0-.876.272,3.053,3.053,0,0,0-.756.423,4.149,4.149,0,0,0-.665.6c-.151.181-.453.544-.574.725a7.826,7.826,0,0,0-.423.876,3.349,3.349,0,0,0-.151.756v5.41h7.828V13.3h-2.267a.627.627,0,0,1-.181-.06c-.06-.03-.091-.151-.121-.212a1,1,0,0,1,0-.423,1.056,1.056,0,0,1,.151-.393.707.707,0,0,1,.212-.212,1.746,1.746,0,0,1,.514-.181c2.3-.212,9.218-.816,9.218-.816v2.085h14.3v.756L254.8,10V0Zm1.179,9.671H239.542l10.366-4.533Z" transform="translate(-220.2)"/><path class="c" d="M318.5,36.968v.786l4.956-3.868V33.1L318.5,36.938Z" transform="translate(-288.792 -23.096)"/><path class="d" d="M318.5,39.568v2.508l4.956-3.808V35.7Z" transform="translate(-288.792 -24.911)"/></g><g transform="translate(-179 0.264)"><path class="e" d="M36.146,8.635H29.3L29.4,7h6.846Zm-.409,3.372H30.015l.2-1.635h5.722Zm-.409,3.474h-4.6l.2-1.635h4.6Zm-.307,3.372H31.65l.2-1.635h3.27Zm-.409,3.474H32.365l.2-1.635h2.248Zm12.364-5.109H40.233l-.715,6.846H36.044L37.781,7H48l-.409,3.372H40.846l-.409,3.372h6.948Z" transform="translate(-29.3 -6.898)"/><path class="e" d="M50.072,24.064H46.7L48.437,7h3.372Z" transform="translate(-28.921 -6.898)"/><path class="e" d="M63.02,10.372H59.648L58.218,24.064H54.744l1.431-13.692H52.7L53.109,7H63.327Z" transform="translate(-28.79 -6.898)"/><path class="e" d="M72.818,24.064H69.446l1.431-13.692H67.5L66.074,24.064H62.6L64.439,7H74.657Z" transform="translate(-28.574 -6.898)"/><path class="e" d="M84.318,24.064H74.1L75.939,7H86.157l-.409,3.372H79L78.7,13.744h6.846l-.511,3.474H78.289l-.409,3.474h6.846Z" transform="translate(-28.324 -6.898)"/><path class="e" d="M95.518,24.064H85.3l.409-3.474h6.846l.307-3.372H86.015L87.139,7H97.357l-.307,3.372H90.307L90,13.744h6.846Z" transform="translate(-28.08 -6.898)"/><path class="e" d="M110.944,8.635H104.2L104.4,7h6.744Zm-.409,3.372h-5.62l.2-1.635h5.62Zm-.307,3.474h-4.5l.2-1.635h4.5Zm-.409,3.474h-3.372l.2-1.635h3.372Zm-.307,3.372h-2.248l.2-1.635h2.248Zm11.648,1.737H110.944L112.681,7H122.9l-.409,3.372h-6.744l-1.124,10.32h6.846Z" transform="translate(-27.668 -6.898)"/><path class="e" d="M131.718,24.064H121.5L123.237,7h10.218l-.409,3.372H126.3L126,13.744h6.846l-.409,3.474h-6.744l-.409,3.474h6.846Z" transform="translate(-27.291 -6.898)"/><path class="e" d="M142.918,24.064h-3.372l1.431-13.692H137.6l-1.431,13.692H132.7L134.539,7h10.218Z" transform="translate(-27.046 -6.898)"/><path class="e" d="M155.82,10.374h-3.372l-1.43,13.692h-3.474l1.43-13.692H145.5l.409-3.474h10.218Z" transform="translate(-26.768 -6.9)"/><path class="e" d="M165.618,24.064h-3.372l.715-6.846h-3.372l-.715,6.846H155.4L157.137,7h5.722l3.985,4.7Zm-2.35-10.32.1-.613-2.35-2.759H160.2l-.307,3.372Z" transform="translate(-26.552 -6.898)"/><path class="e" d="M177.32,24.064h-3.372l.2-2.248-1.737-4.6h-1.124l-.715,6.846H167L168.839,7h10.218l-1.124,10.218H176.3l1.226,3.678Zm-2.35-10.32.307-3.372H171.9l-.307,3.372Z" transform="translate(-26.299 -6.898)"/></g></g><text class="f" transform="translate(702 45)"><tspan x="0" y="0">O nama</tspan></text><text class="f" transform="translate(803 45)"><tspan x="0" y="0">Galerija</tspan></text><text class="f" transform="translate(902 45)"><tspan x="0" y="0">Cenovnik</tspan></text><text class="g" transform="translate(1015 45)"><tspan x="0" y="0">Zakazivanje</tspan></text><text class="f" transform="translate(1152 45)"><tspan x="0" y="0">Kontakt</tspan></text><line class="h" x2="1280" transform="translate(0.5 80.5)"/></g><g transform="translate(8655 -5)"><g class="i" transform="translate(125 168)"><rect class="m" width="500" height="60"/><rect class="c" x="0.5" y="0.5" width="499" height="59"/></g><g class="i" transform="translate(125 248)"><rect class="m" width="500" height="60"/><rect class="c" x="0.5" y="0.5" width="499" height="59"/></g><g class="i" transform="translate(125 328)"><rect class="m" width="500" height="60"/><rect class="c" x="0.5" y="0.5" width="499" height="59"/></g><g class="i" transform="translate(125 408)"><rect class="m" width="240" height="60"/><rect class="c" x="0.5" y="0.5" width="239" height="59"/></g><g class="i" transform="translate(385 408)"><rect class="m" width="240" height="60"/><rect class="c" x="0.5" y="0.5" width="239" height="59"/></g><text class="j" transform="translate(135 206)"><tspan x="0" y="0">Ime i Prezime*</tspan></text><text class="j" transform="translate(135 286)"><tspan x="0" y="0">Email</tspan></text><text class="j" transform="translate(135 366)"><tspan x="0" y="0">Broj Telefona*</tspan></text><text class="j" transform="translate(135 446)"><tspan x="0" y="0">Izaberite Datum* </tspan></text><text class="j" transform="translate(395 446)"><tspan x="0" y="0">Izaberite Vreme* </tspan></text><rect class="d" width="180" height="60" transform="translate(125 488)"/><text class="k" transform="translate(181 526)"><tspan x="0" y="0">ZAKAŽI</tspan></text></g><g transform="translate(8095)"><text class="j" transform="translate(105 251)"><tspan x="0" y="19">Popuni polja sa podacima i sa porukom ako je imaš a </tspan><tspan x="0" y="43">mi ćemo te u najkraćem mogućem roku pozvati da </tspan><tspan x="0" y="67">potvrdimo rezervaciju. </tspan></text><text class="l" transform="translate(105 194)"><tspan x="0" y="0">Zakaži besplatno </tspan><tspan x="0" y="39">merenje.</tspan></text></g></g></svg>